<svg xmlns="http://www.w3.org/2000/svg" viewBox="-56 -56 112 112"><defs><linearGradient id="g0" x1="0" y1="0" x2="1" y2="1"><stop offset="0" stop-color="#8FE3A6"/><stop offset="1" stop-color="#3FC9A5"/></linearGradient><linearGradient id="g1" x1="0" y1="0" x2="1" y2="1"><stop offset="0" stop-color="#5EDAB2"/><stop offset="1" stop-color="#2DBFBF"/></linearGradient><linearGradient id="g2" x1="0" y1="0" x2="1" y2="1"><stop offset="0" stop-color="#2A86E6"/><stop offset="1" stop-color="#35AEE2"/></linearGradient><linearGradient id="g3" x1="0" y1="0" x2="1" y2="1"><stop offset="0" stop-color="#3ACBBD"/><stop offset="1" stop-color="#6CDEC3"/></linearGradient></defs><path d="M0 -46A46 46 0 0 1 -46 0A33.29 33.29 0 0 0 0 -46Z" transform="translate(-5.5 -5.5)" fill="url(#g0)"/><path d="M0 -46A46 46 0 0 0 46 0A33.29 33.29 0 0 1 0 -46Z" transform="translate(5.5 -5.5)" fill="url(#g1)"/><path d="M0 46A46 46 0 0 0 -46 0A33.29 33.29 0 0 1 0 46Z" transform="translate(-5.5 5.5)" fill="url(#g2)"/><path d="M0 46A46 46 0 0 1 46 0A33.29 33.29 0 0 0 0 46Z" transform="translate(5.5 5.5)" fill="url(#g3)"/></svg>
